<svg xmlns="http://www.w3.org/2000/svg" xmlns:xlink="http://www.w3.org/1999/xlink" version="1.1" id="Layer_1" x="0" y="0" viewBox="0 0 167.9 88" enable-background="new 0 0 167.9 88" xml:space="preserve">
  <defs>
    <rect id="SVGID_1_" x="0" y="0" width="167.9" height="88"/>
  </defs>
  <clipPath id="SVGID_2_">
    <use xlink:href="#SVGID_1_" overflow="visible"/>
  </clipPath>
  <path clip-path="url(#SVGID_2_)" fill="#84BDEC" d="M35.9 37.5c0.4-0.4 1.1-0.4 1.5 0 0.4 0.4 0.4 1.1 0 1.5 -0.4 0.4-1.1 0.4-1.5 0C35.5 38.6 35.5 37.9 35.9 37.5"/>
  <path clip-path="url(#SVGID_2_)" fill="#84BDEC" d="M40.9 32.2c0.4-0.4 1.1-0.4 1.5 0 0.4 0.4 0.4 1.1 0 1.5 -0.4 0.4-1.1 0.4-1.5 0C40.5 33.3 40.5 32.6 40.9 32.2"/>
  <path clip-path="url(#SVGID_2_)" fill="#84BDEC" d="M46 26.9c0.4-0.4 1.1-0.4 1.5 0 0.4 0.4 0.4 1.1 0 1.5 -0.4 0.4-1.1 0.4-1.5 0C45.6 28 45.6 27.3 46 26.9"/>
  <path clip-path="url(#SVGID_2_)" fill="#84BDEC" d="M51.1 21.6c0.4-0.4 1.1-0.4 1.5 0 0.4 0.4 0.4 1.1 0 1.5 -0.4 0.4-1.1 0.4-1.5 0C50.7 22.7 50.7 22 51.1 21.6"/>
  <path clip-path="url(#SVGID_2_)" fill="#84BDEC" d="M30.8 32.2c0.4-0.4 1.1-0.4 1.5 0 0.4 0.4 0.4 1.1 0 1.5 -0.4 0.4-1.1 0.4-1.5 0C30.4 33.3 30.4 32.6 30.8 32.2"/>
  <path clip-path="url(#SVGID_2_)" fill="#84BDEC" d="M35.9 26.9c0.4-0.4 1.1-0.4 1.5 0 0.4 0.4 0.4 1.1 0 1.5 -0.4 0.4-1.1 0.4-1.5 0C35.5 28 35.5 27.3 35.9 26.9"/>
  <path clip-path="url(#SVGID_2_)" fill="#84BDEC" d="M40.9 21.6c0.4-0.4 1.1-0.4 1.5 0 0.4 0.4 0.4 1.1 0 1.5 -0.4 0.4-1.1 0.4-1.5 0C40.5 22.7 40.5 22 40.9 21.6"/>
  <path clip-path="url(#SVGID_2_)" fill="#84BDEC" d="M46 16.3c0.4-0.4 1.1-0.4 1.5 0 0.4 0.4 0.4 1.1 0 1.5 -0.4 0.4-1.1 0.4-1.5 0C45.6 17.4 45.6 16.7 46 16.3"/>
  <path clip-path="url(#SVGID_2_)" fill="#84BDEC" d="M25.7 26.9c0.4-0.4 1.1-0.4 1.5 0 0.4 0.4 0.4 1.1 0 1.5 -0.4 0.4-1.1 0.4-1.5 0C25.3 28 25.3 27.3 25.7 26.9"/>
  <path clip-path="url(#SVGID_2_)" fill="#84BDEC" d="M30.8 21.6c0.4-0.4 1.1-0.4 1.5 0 0.4 0.4 0.4 1.1 0 1.5 -0.4 0.4-1.1 0.4-1.5 0C30.4 22.7 30.4 22 30.8 21.6"/>
  <path clip-path="url(#SVGID_2_)" fill="#84BDEC" d="M35.9 16.3c0.4-0.4 1.1-0.4 1.5 0 0.4 0.4 0.4 1.1 0 1.5 -0.4 0.4-1.1 0.4-1.5 0C35.5 17.4 35.5 16.7 35.9 16.3"/>
  <path clip-path="url(#SVGID_2_)" fill="#84BDEC" d="M40.9 11c0.4-0.4 1.1-0.4 1.5 0 0.4 0.4 0.4 1.1 0 1.5 -0.4 0.4-1.1 0.4-1.5 0C40.5 12.1 40.5 11.4 40.9 11"/>
  <path clip-path="url(#SVGID_2_)" fill="#84BDEC" d="M0.4 32.2c0.4-0.4 1.1-0.4 1.5 0 0.4 0.4 0.4 1.1 0 1.5 -0.4 0.4-1.1 0.4-1.5 0C0 33.3 0 32.6 0.4 32.2"/>
  <path clip-path="url(#SVGID_2_)" fill="#84BDEC" d="M5.5 26.9c0.4-0.4 1.1-0.4 1.5 0 0.4 0.4 0.4 1.1 0 1.5 -0.4 0.4-1.1 0.4-1.5 0C5.1 28 5.1 27.3 5.5 26.9"/>
  <path clip-path="url(#SVGID_2_)" fill="#84BDEC" d="M10.5 21.6c0.4-0.4 1.1-0.4 1.5 0 0.4 0.4 0.4 1.1 0 1.5 -0.4 0.4-1.1 0.4-1.5 0C10.1 22.7 10.1 22 10.5 21.6"/>
  <path clip-path="url(#SVGID_2_)" fill="#84BDEC" d="M15.6 16.3c0.4-0.4 1.1-0.4 1.5 0 0.4 0.4 0.4 1.1 0 1.5 -0.4 0.4-1.1 0.4-1.5 0C15.2 17.4 15.2 16.7 15.6 16.3"/>
  <path clip-path="url(#SVGID_2_)" fill="#84BDEC" d="M20.7 11c0.4-0.4 1.1-0.4 1.5 0 0.4 0.4 0.4 1.1 0 1.5 -0.4 0.4-1.1 0.4-1.5 0C20.3 12.1 20.3 11.4 20.7 11"/>
  <path clip-path="url(#SVGID_2_)" fill="#84BDEC" d="M25.7 5.7c0.4-0.4 1.1-0.4 1.5 0 0.4 0.4 0.4 1.1 0 1.5 -0.4 0.4-1.1 0.4-1.5 0C25.3 6.8 25.3 6.1 25.7 5.7"/>
  <path clip-path="url(#SVGID_2_)" fill="#84BDEC" d="M30.8 0.4c0.4-0.4 1.1-0.4 1.5 0 0.4 0.4 0.4 1.1 0 1.5 -0.4 0.4-1.1 0.4-1.5 0C30.4 1.5 30.4 0.8 30.8 0.4"/>
  <path clip-path="url(#SVGID_2_)" fill="#84BDEC" d="M5.5 37.5c0.4-0.4 1.1-0.4 1.5 0 0.4 0.4 0.4 1.1 0 1.5 -0.4 0.4-1.1 0.4-1.5 0C5.1 38.6 5.1 37.9 5.5 37.5"/>
  <path clip-path="url(#SVGID_2_)" fill="#84BDEC" d="M10.5 32.2c0.4-0.4 1.1-0.4 1.5 0 0.4 0.4 0.4 1.1 0 1.5 -0.4 0.4-1.1 0.4-1.5 0C10.1 33.3 10.1 32.6 10.5 32.2"/>
  <path clip-path="url(#SVGID_2_)" fill="#84BDEC" d="M15.6 26.9c0.4-0.4 1.1-0.4 1.5 0 0.4 0.4 0.4 1.1 0 1.5 -0.4 0.4-1.1 0.4-1.5 0C15.2 28 15.2 27.3 15.6 26.9"/>
  <path clip-path="url(#SVGID_2_)" fill="#84BDEC" d="M20.7 21.6c0.4-0.4 1.1-0.4 1.5 0 0.4 0.4 0.4 1.1 0 1.5 -0.4 0.4-1.1 0.4-1.5 0C20.3 22.7 20.3 22 20.7 21.6"/>
  <path clip-path="url(#SVGID_2_)" fill="#84BDEC" d="M25.7 16.3c0.4-0.4 1.1-0.4 1.5 0 0.4 0.4 0.4 1.1 0 1.5 -0.4 0.4-1.1 0.4-1.5 0C25.3 17.4 25.3 16.7 25.7 16.3"/>
  <path clip-path="url(#SVGID_2_)" fill="#84BDEC" d="M30.8 11c0.4-0.4 1.1-0.4 1.5 0 0.4 0.4 0.4 1.1 0 1.5 -0.4 0.4-1.1 0.4-1.5 0C30.4 12.1 30.4 11.4 30.8 11"/>
  <path clip-path="url(#SVGID_2_)" fill="#84BDEC" d="M35.9 5.7c0.4-0.4 1.1-0.4 1.5 0 0.4 0.4 0.4 1.1 0 1.5 -0.4 0.4-1.1 0.4-1.5 0C35.5 6.8 35.5 6.1 35.9 5.7"/>
  <path clip-path="url(#SVGID_2_)" fill="#84BDEC" d="M40.9 42.8c0.4-0.4 1.1-0.4 1.5 0 0.4 0.4 0.4 1.1 0 1.5 -0.4 0.4-1.1 0.4-1.5 0C40.5 43.9 40.5 43.2 40.9 42.8"/>
  <path clip-path="url(#SVGID_2_)" fill="#84BDEC" d="M46 37.5c0.4-0.4 1.1-0.4 1.5 0 0.4 0.4 0.4 1.1 0 1.5 -0.4 0.4-1.1 0.4-1.5 0C45.6 38.6 45.6 37.9 46 37.5"/>
  <path clip-path="url(#SVGID_2_)" fill="#84BDEC" d="M51.1 32.2c0.4-0.4 1.1-0.4 1.5 0 0.4 0.4 0.4 1.1 0 1.5 -0.4 0.4-1.1 0.4-1.5 0C50.7 33.3 50.7 32.6 51.1 32.2"/>
  <path clip-path="url(#SVGID_2_)" fill="#84BDEC" d="M56.1 26.9c0.4-0.4 1.1-0.4 1.5 0 0.4 0.4 0.4 1.1 0 1.5 -0.4 0.4-1.1 0.4-1.5 0C55.7 28 55.7 27.3 56.1 26.9"/>
  <path clip-path="url(#SVGID_2_)" fill="#84BDEC" d="M25.7 58.7c0.4-0.4 1.1-0.4 1.5 0 0.4 0.4 0.4 1.1 0 1.5 -0.4 0.4-1.1 0.4-1.5 0C25.3 59.8 25.3 59.1 25.7 58.7"/>
  <path clip-path="url(#SVGID_2_)" fill="#84BDEC" d="M30.8 53.4c0.4-0.4 1.1-0.4 1.5 0 0.4 0.4 0.4 1.1 0 1.5 -0.4 0.4-1.1 0.4-1.5 0C30.4 54.5 30.4 53.8 30.8 53.4"/>
  <path clip-path="url(#SVGID_2_)" fill="#84BDEC" d="M35.9 48.1c0.4-0.4 1.1-0.4 1.5 0 0.4 0.4 0.4 1.1 0 1.5 -0.4 0.4-1.1 0.4-1.5 0C35.5 49.2 35.5 48.5 35.9 48.1"/>
  <path clip-path="url(#SVGID_2_)" fill="#84BDEC" d="M46 48.1c0.4-0.4 1.1-0.4 1.5 0 0.4 0.4 0.4 1.1 0 1.5 -0.4 0.4-1.1 0.4-1.5 0C45.6 49.2 45.6 48.5 46 48.1"/>
  <path clip-path="url(#SVGID_2_)" fill="#84BDEC" d="M51.1 42.8c0.4-0.4 1.1-0.4 1.5 0 0.4 0.4 0.4 1.1 0 1.5 -0.4 0.4-1.1 0.4-1.5 0C50.7 43.9 50.7 43.2 51.1 42.8"/>
  <path clip-path="url(#SVGID_2_)" fill="#84BDEC" d="M56.1 37.5c0.4-0.4 1.1-0.4 1.5 0 0.4 0.4 0.4 1.1 0 1.5 -0.4 0.4-1.1 0.4-1.5 0C55.7 38.6 55.7 37.9 56.1 37.5"/>
  <path clip-path="url(#SVGID_2_)" fill="#84BDEC" d="M61.2 32.2c0.4-0.4 1.1-0.4 1.5 0 0.4 0.4 0.4 1.1 0 1.5 -0.4 0.4-1.1 0.4-1.5 0C60.8 33.3 60.8 32.6 61.2 32.2"/>
  <path clip-path="url(#SVGID_2_)" fill="#84BDEC" d="M30.8 64c0.4-0.4 1.1-0.4 1.5 0 0.4 0.4 0.4 1.1 0 1.5 -0.4 0.4-1.1 0.4-1.5 0C30.4 65.1 30.4 64.4 30.8 64"/>
  <path clip-path="url(#SVGID_2_)" fill="#84BDEC" d="M35.9 58.7c0.4-0.4 1.1-0.4 1.5 0 0.4 0.4 0.4 1.1 0 1.5 -0.4 0.4-1.1 0.4-1.5 0C35.5 59.8 35.5 59.1 35.9 58.7"/>
  <path clip-path="url(#SVGID_2_)" fill="#84BDEC" d="M40.9 53.4c0.4-0.4 1.1-0.4 1.5 0 0.4 0.4 0.4 1.1 0 1.5 -0.4 0.4-1.1 0.4-1.5 0C40.5 54.5 40.5 53.8 40.9 53.4"/>
  <path clip-path="url(#SVGID_2_)" fill="#2E3C67" d="M134 28.7h10.5 2.3c3.2 0 5.9 2.8 5.9 6.1 0 2.5-1.4 4.7-3.5 5.6l5.2 5.5c3.3-2.5 5.5-6.5 5.5-11.1 0-7.5-5.9-13.7-13.1-13.7l-0.4 0 -18.1 0h0 0c-0.8 0-1.4 0.6-1.5 1.5 0 0 0 0.1 0 0.1 0 0 0 0.1 0 0.1l0 43.1c0 0 0 0 0 0s0 0 0 0c0 0.8 0.7 1.5 1.5 1.5 0 0 0 0 0 0 0 0 0 0 0 0h4.1c0 0 0 0 0 0 0 0 0 0 0 0 0.8 0 1.5-0.7 1.5-1.5 0 0 0 0 0 0 0 0 0 0 0 0V28.7z"/>
  <polygon clip-path="url(#SVGID_2_)" fill="#2E3C67" points="70.4 37.9 70.4 37.9 70.4 37.9 "/>
  <path clip-path="url(#SVGID_2_)" fill="#2E3C67" d="M60.5 28.7c2.1 0 4 1.8 3.8 4 -0.1 1.3-0.6 2.5-1.5 3.2l0 0c2.7-0.1 5.3 0.7 7.6 1.9 0.7-1.5 1.1-3.3 1.1-5.1 0-6.4-4.9-11.5-11-11.5h-0.5l-19 0h0 0c-0.8 0-1.5 0.7-1.5 1.6V66c0 0.9 0.7 1.6 1.5 1.6h4.2c0.8 0 1.5-0.7 1.5-1.6V28.7h13.5L60.5 28.7z"/>
  <path clip-path="url(#SVGID_2_)" fill="#2E3C67" d="M89.8 22.8c0-0.9-0.7-1.6-1.5-1.6h-4.2c-0.8 0-1.5 0.7-1.5 1.6V66c0 0.9 0.7 1.6 1.5 1.6h4.2v0c0.8 0 1.5-0.7 1.5-1.6 0 0 0 0 0 0l0 0L89.8 22.8 89.8 22.8C89.8 22.8 89.8 22.8 89.8 22.8"/>
  <path clip-path="url(#SVGID_2_)" fill="#84BDEC" d="M119.6 21.2C119.6 21.2 119.6 21.2 119.6 21.2 119.6 21.2 119.6 21.2 119.6 21.2l-6 0c-0.4 0-0.7 0.2-1 0.4l-0.1 0.1 -8.6 9 -4.4 4.6 0 0c0 0 0 0 0 0 -0.6 0.6-0.6 1.6 0 2.2l3 3.1c0.6 0.6 1.5 0.6 2.1 0l3.8-4 2.4-2.6 0.3-0.4 9.4-9.9 0.1-0.1c0.2-0.3 0.4-0.6 0.4-1C121.1 21.9 120.4 21.2 119.6 21.2"/>
  <path clip-path="url(#SVGID_2_)" fill="#2E3C67" d="M167.5 65l-0.1-0.1 -7.6-7.9 0.1-0.1 -14.1-14.8 -0.1-0.1c-0.3-0.2-0.6-0.4-1-0.4l-6 0c0 0 0 0 0 0s0 0 0 0c-0.8 0-1.5 0.7-1.5 1.6 0 0.4 0.1 0.8 0.4 1l0.1 0.1 7.5 7.9 0 0 9.4 9.9 0 0 4.6 4.9 0.1 0.1c0.3 0.2 0.6 0.4 1 0.4h0l6 0c0 0 0 0 0 0 0 0 0 0 0 0 0.8 0 1.5-0.7 1.5-1.6C167.9 65.6 167.7 65.2 167.5 65"/>
  <path clip-path="url(#SVGID_2_)" fill="#2E3C67" d="M62.8 39.7l-0.2 0H51.8c-0.8 0-1.5 0.7-1.5 1.6v4.4 1.6h11l1.5 0c3.4 0 6.1 2.9 6.1 6.4 0 3.5-2.7 6.4-6.1 6.4l-0.2 0H51.8c-0.8 0-1.5 0.7-1.5 1.6V66l0 0c0 0.8 0.7 1.5 1.5 1.5h10.6l0.5 0c7.4 0 13.3-6.2 13.3-13.9C76.1 45.9 70.2 39.7 62.8 39.7"/>
  <path clip-path="url(#SVGID_2_)" fill="#2E3C67" d="M120.4 64.8l-5.7-5.9 -8-8.4 -3.4-3.6h0l-6.8-7.1 0 0c0 0 0 0 0 0 -0.4-0.4-1.1-0.2-1.7 0.4l-3 3.1 0 0v0c-0.6 0.6-0.8 1.4-0.4 1.8l7.6 8L112.3 67l0.1 0.1c0.3 0.2 0.6 0.4 1 0.4h0l6 0c0 0 0 0 0 0 0 0 0 0 0 0 0.8 0 1.5-0.7 1.5-1.6 0-0.4-0.1-0.8-0.4-1L120.4 64.8z"/>
  <path clip-path="url(#SVGID_2_)" fill="#2E3C67" d="M17.9 36c0-2.1 1.6-3.8 3.6-3.8 2 0 3.6 1.7 3.6 3.8 0 2.1-1.6 3.8-3.6 3.8C19.6 39.8 17.9 38.1 17.9 36"/>
  <path clip-path="url(#SVGID_2_)" fill="#2E3C67" d="M17.9 51c0-2.1 1.6-3.8 3.6-3.8 2 0 3.6 1.7 3.6 3.8 0 2.1-1.6 3.8-3.6 3.8C19.6 54.7 17.9 53 17.9 51"/>
  <path clip-path="url(#SVGID_2_)" fill="#2E3C67" d="M25.1 43.5c0-2.1 1.6-3.8 3.6-3.8s3.6 1.7 3.6 3.8c0 2.1-1.6 3.8-3.6 3.8S25.1 45.6 25.1 43.5"/>
  <path clip-path="url(#SVGID_2_)" fill="#2E3C67" d="M10.9 43.5c0-2.1 1.6-3.8 3.6-3.8 2 0 3.6 1.7 3.6 3.8 0 2.1-1.6 3.8-3.6 3.8C12.5 47.3 10.9 45.6 10.9 43.5"/>
  <path clip-path="url(#SVGID_2_)" fill="#84BDEC" d="M46.2 86.7c-0.8 0.8-1.8 1.3-3 1.3 -1.1 0-2.1-0.4-2.9-1.2 -1.1-1.1-1.1-2.4-1.1-4.6 0-2.2 0-3.5 1.1-4.6 0.8-0.8 1.7-1.2 2.9-1.2 1.5 0 2.3 0.5 3.3 1.5l-1.1 1.2c-0.7-0.7-1.2-1.1-2.2-1.1 -0.6 0-1.2 0.3-1.6 0.7 -0.5 0.6-0.6 1.3-0.6 3.5 0 2.3 0.1 3 0.6 3.6 0.4 0.4 1 0.7 1.6 0.7 0.7 0 1.3-0.3 1.7-0.8 0.4-0.5 0.5-1.1 0.5-1.8v-0.6h-2.3v-1.5h3.9v1.7C47.2 84.9 46.9 85.9 46.2 86.7"/>
  <path clip-path="url(#SVGID_2_)" fill="#84BDEC" d="M54.5 87c-0.5 0.5-1.3 1-2.3 1 -1.1 0-1.8-0.4-2.3-1 -0.7-0.8-0.9-1.8-0.9-3.2 0-1.4 0.2-2.4 0.9-3.2 0.5-0.5 1.3-1 2.3-1 1.1 0 1.8 0.4 2.3 1 0.7 0.8 0.9 1.8 0.9 3.2C55.5 85.2 55.3 86.2 54.5 87M53.4 81.6c-0.3-0.3-0.7-0.5-1.1-0.5 -0.5 0-0.8 0.2-1.1 0.5 -0.5 0.5-0.5 1.3-0.5 2.2 0 0.9 0.1 1.7 0.5 2.2 0.3 0.3 0.7 0.5 1.1 0.5 0.5 0 0.9-0.2 1.1-0.5 0.5-0.5 0.5-1.3 0.5-2.2C53.9 83 53.8 82.1 53.4 81.6"/>
  <path clip-path="url(#SVGID_2_)" fill="#84BDEC" d="M58.7 84.3c0 1.4 0.7 2.3 2 2.3 0.9 0 1.3-0.3 1.9-0.8l1 1C62.8 87.6 62 88 60.7 88c-1.9 0-3.5-1.1-3.5-4.2 0-2.6 1.3-4.2 3.3-4.2 2.1 0 3.3 1.6 3.3 3.9v0.7H58.7zM62 82.1c-0.2-0.6-0.8-1-1.5-1 -0.7 0-1.3 0.4-1.5 1 -0.2 0.4-0.2 0.6-0.2 1.1h3.5C62.2 82.7 62.2 82.4 62 82.1"/>
  <path clip-path="url(#SVGID_2_)" fill="#84BDEC" d="M70.3 87.9V87c-0.6 0.7-1.2 1-2.1 1 -0.8 0-1.5-0.3-1.9-0.7 -0.8-0.8-0.9-2.2-0.9-3.4 0-1.2 0.1-2.6 0.9-3.4 0.4-0.4 1.1-0.7 1.9-0.7 0.8 0 1.5 0.2 2 0.9v-4.1h1.6v11.4H70.3zM68.7 81.1c-1.4 0-1.6 1.2-1.6 2.7 0 1.4 0.2 2.7 1.6 2.7 1.4 0 1.6-1.3 1.6-2.7C70.3 82.4 70.1 81.1 68.7 81.1"/>
  <path clip-path="url(#SVGID_2_)" fill="#84BDEC" d="M83.5 87.3C83 87.7 82.4 88 81.6 88c-0.8 0-1.5-0.2-2.1-1v0.9H78V76.5h1.6v4.1c0.6-0.7 1.2-0.9 2-0.9 0.8 0 1.5 0.3 1.9 0.7 0.8 0.8 0.9 2.2 0.9 3.4C84.4 85.1 84.3 86.5 83.5 87.3M81.2 81.1c-1.4 0-1.6 1.2-1.6 2.7 0 1.4 0.2 2.7 1.6 2.7 1.4 0 1.6-1.3 1.6-2.7C82.8 82.4 82.6 81.1 81.2 81.1"/>
  <path clip-path="url(#SVGID_2_)" fill="#84BDEC" d="M87.6 84.3c0 1.4 0.7 2.3 2 2.3 0.9 0 1.3-0.3 1.9-0.8l1 1c-0.8 0.8-1.5 1.3-2.9 1.3 -1.9 0-3.5-1.1-3.5-4.2 0-2.6 1.3-4.2 3.3-4.2 2.1 0 3.3 1.6 3.3 3.9v0.7H87.6zM90.9 82.1c-0.2-0.6-0.8-1-1.5-1 -0.7 0-1.3 0.4-1.5 1 -0.2 0.4-0.2 0.6-0.2 1.1h3.5C91.1 82.7 91 82.4 90.9 82.1"/>
  <polygon clip-path="url(#SVGID_2_)" fill="#84BDEC" points="99.6 87.9 97.4 84.2 96.3 85.5 96.3 87.9 94.7 87.9 94.7 76.5 96.3 76.5 96.3 83.5 99.3 79.8 101.2 79.8 98.5 83 101.5 87.9 "/>
  <path clip-path="url(#SVGID_2_)" fill="#84BDEC" d="M104.1 84.3c0 1.4 0.7 2.3 2 2.3 0.9 0 1.3-0.3 1.9-0.8l1 1c-0.8 0.8-1.5 1.3-2.9 1.3 -1.9 0-3.5-1.1-3.5-4.2 0-2.6 1.3-4.2 3.3-4.2 2.1 0 3.3 1.6 3.3 3.9v0.7H104.1zM107.3 82.1c-0.2-0.6-0.8-1-1.5-1s-1.3 0.4-1.5 1c-0.2 0.4-0.2 0.6-0.2 1.1h3.5C107.5 82.7 107.5 82.4 107.3 82.1"/>
  <polygon clip-path="url(#SVGID_2_)" fill="#84BDEC" points="116.1 87.9 113.9 84.2 112.7 85.5 112.7 87.9 111.2 87.9 111.2 76.5 112.7 76.5 112.7 83.5 115.8 79.8 117.7 79.8 115 83 118 87.9 "/>
  <path clip-path="url(#SVGID_2_)" fill="#84BDEC" d="M120.5 84.3c0 1.4 0.7 2.3 2 2.3 0.9 0 1.3-0.3 1.9-0.8l1 1c-0.8 0.8-1.5 1.3-2.9 1.3 -1.9 0-3.5-1.1-3.5-4.2 0-2.6 1.3-4.2 3.3-4.2 2.1 0 3.3 1.6 3.3 3.9v0.7H120.5zM123.8 82.1c-0.2-0.6-0.8-1-1.5-1s-1.3 0.4-1.5 1c-0.2 0.4-0.2 0.6-0.2 1.1h3.5C124 82.7 124 82.4 123.8 82.1"/>
  <path clip-path="url(#SVGID_2_)" fill="#84BDEC" d="M132.4 87.9v-5c0-1.3-0.7-1.8-1.6-1.8 -0.9 0-1.6 0.6-1.6 1.8v5h-1.6v-8.1h1.5v0.8c0.5-0.6 1.3-0.9 2.1-0.9 0.8 0 1.5 0.3 1.9 0.7 0.6 0.6 0.8 1.4 0.8 2.3v5.2H132.4z"/>
  <path clip-path="url(#SVGID_2_)" fill="#84BDEC" d="M136.1 88c-0.6 0-1.1-0.5-1.1-1.2 0-0.6 0.5-1.2 1.1-1.2 0.6 0 1.1 0.5 1.1 1.2C137.2 87.4 136.7 88 136.1 88"/>
</svg>
